<?xml version="1.0" standalone="no"?><!DOCTYPE svg PUBLIC "-//W3C//DTD SVG 1.1//EN" "http://www.w3.org/Graphics/SVG/1.1/DTD/svg11.dtd"><svg t="1611238745383" class="icon" viewBox="0 0 1024 1024" version="1.1" xmlns="http://www.w3.org/2000/svg" p-id="4353" xmlns:xlink="http://www.w3.org/1999/xlink" width="200" height="200"><defs><style type="text/css"></style></defs><path d="M512 65.472l-23.232 24.512s-72.96 77.248-146.24 175.04C268.992 362.88 192 477.248 192 576c0 176.256 143.744 320 320 320s320-143.744 320-320c0-98.752-76.992-212.992-150.272-311.04-73.472-97.728-146.496-174.976-146.496-174.976z m0 96.512c17.728 19.264 59.264 62.528 118.528 141.504C700.992 398.08 768 515.84 768 576c0 141.76-114.24 256-256 256s-256-114.24-256-256c0-60.224 67.008-177.984 137.472-272.512 59.264-78.976 100.8-122.24 118.528-141.44zM320 576c0 44.8 13.76 92.032 45.44 129.28 32 37.248 82.56 62.72 146.56 62.72v-64c-48 0-77.44-16.512-97.472-40.256C394.24 640 384 607.232 384 576z" p-id="4354" fill="#1296db"></path></svg>